<?xml version="1.0" encoding="utf-8"?>
<!-- Generator: Adobe Illustrator 16.0.0, SVG Export Plug-In . SVG Version: 6.00 Build 0)  -->
<!DOCTYPE svg PUBLIC "-//W3C//DTD SVG 1.1//EN" "http://www.w3.org/Graphics/SVG/1.1/DTD/svg11.dtd">
<svg version="1.1" id="Warstwa_1" xmlns="http://www.w3.org/2000/svg" xmlns:xlink="http://www.w3.org/1999/xlink" x="0px" y="0px"
	 width="283.46px" height="283.46px" viewBox="0 0 283.46 283.46" enable-background="new 0 0 283.46 283.46" xml:space="preserve">
<g>
	<path fill="#00628B" d="M252.818,96.687l-1.266-3.004l6.917-1.111L252.818,96.687L252.818,96.687z M248.346,104.097l2.004-0.842
		l-0.474-1.129l10.998-8.463l-1.387-3.314l-13.755,1.926l-0.457-1.09l-2.004,0.842l1.179,2.801l4.985-0.832l1.66,3.953l-4.064,3.015
		L248.346,104.097L248.346,104.097z"/>
	<path fill="#00628B" d="M242.454,90.372l1.884-1.08l-0.657-1.15l3.271-1.878c1.523-0.874,1.932-2.342,1.123-3.761l-0.782-1.354
		l5.503,0.325l0.905,1.575l1.899-1.092l-1.535-2.674l-8.147-0.125l6.072-3.487l-1.896-3.304l-1.9,1.088l0.657,1.15l-9.735,5.596
		l-0.661-1.147l-1.884,1.081l1.899,3.307l5.86-3.365l1.611,2.81c0.336,0.581,0.111,1.024-0.626,1.449l-4.762,2.735L242.454,90.372
		L242.454,90.372z"/>
	<path fill="#00628B" d="M237.18,76.116l2.737-2.004c1.423-1.04,1.663-2.515,0.693-3.835l-1.896-2.6
		c-0.396-0.543-0.212-1.023,0.469-1.521l1.467-1.073c0.698-0.51,1.179-0.522,1.58,0.024l1.899,2.595l-1.607,1.179l1.447,1.976
		l3.374-2.471l-3.779-5.164c-0.966-1.322-2.473-1.543-3.888-0.509l-2.561,1.875c-1.419,1.038-1.668,2.539-0.702,3.863l1.893,2.583
		c0.396,0.542,0.224,1.01-0.478,1.521l-1.611,1.18c-0.686,0.499-1.198,0.533-1.595-0.008l-2.076-2.838l1.947-1.421l-1.507-2.06
		l-3.699,2.707l4.028,5.498C234.278,76.942,235.777,77.14,237.18,76.116L237.18,76.116z"/>
	<path fill="#00628B" d="M237.621,59.217l1.579-1.525l-2.525-2.613l-6.612,6.388c-0.485,0.465-1.011,1.058-1.567,1.785l4.212-12.28
		l-2.725-2.83l-1.58,1.525l0.922,0.95l-8.08,7.803l-0.922-0.954l-1.562,1.509l2.529,2.615l6.601-6.378
		c0.481-0.464,1.022-1.068,1.595-1.814l-4.067,12.469l1.646,1.703l9.64-9.309L237.621,59.217L237.621,59.217z M239.732,51.902
		l-1.703-1.76l-3.41,1.042l1.358,1.409L239.732,51.902L239.732,51.902z"/>
	<path fill="#00628B" d="M217.741,58.053l1.372-1.684l-0.946-0.776l5.755-12.631l-2.781-2.275l-11.246,8.144l-0.922-0.747
		l-1.37,1.682l2.356,1.925l4.012-3.074l3.322,2.713l-2.181,4.57L217.741,58.053L217.741,58.053z M218.219,49.409l-2.521-2.06
		l5.587-4.22L218.219,49.409L218.219,49.409z"/>
	<path fill="#00628B" d="M214.143,37.96l1.146-1.87l-3.102-1.896l-4.794,7.848c-0.353,0.571-0.713,1.276-1.066,2.122l0.986-12.947
		l-3.351-2.051l-1.142,1.875l1.13,0.687l-5.855,9.585l-1.131-0.691l-1.134,1.854l3.106,1.896l4.785-7.832
		c0.349-0.572,0.718-1.296,1.086-2.16l-0.802,13.09l2.024,1.237l6.981-11.435L214.143,37.96L214.143,37.96z"/>
	<polygon fill="#00628B" points="193.799,41.37 195.831,36.96 193.627,35.947 192.5,38.381 187.892,36.259 199.238,28.902 
		200.075,27.093 190.816,22.827 188.801,27.203 191.025,28.227 192.124,25.844 196.5,27.858 185.134,35.162 184.292,36.991 
		193.799,41.37 	"/>
	<path fill="#00628B" d="M180.766,31.983c-0.273,0.804-0.653,1.132-1.286,0.918l-2.807-0.956c-0.637-0.21-0.757-0.713-0.484-1.519
		l2.794-8.22c0.276-0.819,0.669-1.106,1.303-0.89l2.805,0.954c0.634,0.212,0.754,0.673,0.474,1.493L180.766,31.983L180.766,31.983z
		 M182.941,33.388l3.194-9.397c0.565-1.663-0.096-3.035-1.65-3.562l-4.188-1.424c-1.551-0.527-2.914,0.16-3.475,1.823l-3.19,9.399
		c-0.562,1.644,0.096,3.018,1.651,3.543l4.184,1.425C181.026,35.72,182.385,35.037,182.941,33.388L182.941,33.388z"/>
	<path fill="#00628B" d="M170.297,21.869c-0.168,0.831-0.525,1.182-1.178,1.05l-3.143-0.637l0.894-4.385l3.138,0.635
		c0.657,0.136,0.851,0.579,0.678,1.425L170.297,21.869L170.297,21.869z M172.714,22.48l0.532-2.627
		c0.345-1.721-0.46-2.994-2.066-3.318l-7.607-1.543l-0.438,2.146l1.299,0.267l-2.232,11.004l-1.299-0.265l-0.433,2.131l5.17,1.047
		l0.434-2.131l-1.436-0.289l0.931-4.589l3.486,0.709C170.891,25.394,172.309,24.45,172.714,22.48L172.714,22.48z"/>
	<path fill="#00628B" d="M145.103,21.849l-3.26-0.042l1.75-6.786L145.103,21.849L145.103,21.849z M150.105,28.907l0.032-2.172
		l-1.227-0.014l-3.36-13.469l-3.595-0.044l-3.731,13.37l-1.185-0.016l-0.025,2.172l3.039,0.04l1.23-4.902l4.284,0.057l1.141,4.935
		L150.105,28.907L150.105,28.907z"/>
	<path fill="#00628B" d="M135.489,28.791l-0.238-2.16l-1.315,0.146l-0.415-3.75c-0.189-1.747-1.37-2.711-3.002-2.531l-1.548,0.17
		l2.498-4.916l1.808-0.198l-0.243-2.179l-3.062,0.337l-3.374,7.415l-0.769-6.96l-3.788,0.419l0.24,2.179l1.316-0.146l1.227,11.162
		l-1.315,0.148l0.237,2.157l3.791-0.415l-0.739-6.715l3.218-0.356c0.67-0.073,0.988,0.31,1.082,1.153l0.6,5.461L135.489,28.791
		L135.489,28.791z"/>
	<polygon fill="#00628B" points="121.77,30.52 121.347,28.387 120.028,28.65 117.828,17.638 119.148,17.375 118.72,15.224 
		113.665,16.233 114.093,18.384 115.39,18.125 117.588,29.135 116.291,29.397 116.716,31.526 121.77,30.52 	"/>
	<path fill="#00628B" d="M110.927,19.057l-0.644-2.094l-3.475,1.066l2.706,8.791c0.195,0.642,0.488,1.379,0.884,2.205l-9.044-9.317
		l-3.758,1.157l0.646,2.094l1.265-0.389l3.302,10.732l-1.265,0.388l0.636,2.078l3.478-1.07l-2.699-8.772
		c-0.199-0.643-0.492-1.4-0.898-2.246l9.278,9.273l2.263-0.697l-3.939-12.81L110.927,19.057L110.927,19.057z"/>
	<polygon fill="#00628B" points="100.084,36.628 99.164,34.661 97.964,35.219 93.212,25.027 94.412,24.468 93.487,22.48 
		90.029,24.091 92.913,30.274 88.708,32.238 85.822,26.053 82.364,27.662 83.295,29.65 84.493,29.091 89.248,39.286 88.048,39.844 
		88.967,41.813 92.419,40.203 89.541,34.029 93.747,32.066 96.627,38.241 100.084,36.628 	"/>
	<path fill="#00628B" d="M86.786,42.977l-2.552-4.226l-1.877,1.132l1.427,2.365l-3.297,1.992c-0.573,0.346-1.034,0.116-1.475-0.611
		l-4.491-7.433c-0.444-0.737-0.412-1.221,0.162-1.569l3.297-1.99l1.397,2.312l1.875-1.134l-2.529-4.189l-5.799,3.503
		c-1.405,0.849-1.754,2.329-0.846,3.832l5.13,8.497c0.897,1.489,2.372,1.866,3.775,1.017L86.786,42.977L86.786,42.977z"/>
	<polygon fill="#00628B" points="76.694,49.339 73.64,45.431 71.898,46.792 73.612,48.988 69.831,51.942 66.851,48.13 
		70.772,45.062 69.481,43.415 65.56,46.478 62.917,43.095 66.574,40.239 68.199,42.319 69.913,40.98 66.937,37.169 58.562,43.714 
		59.915,45.441 60.957,44.627 67.869,53.475 66.827,54.291 68.165,56.001 76.694,49.339 	"/>
	<polygon fill="#00628B" points="58.951,49.123 55.882,45.993 47.271,54.447 50.341,57.577 51.989,55.956 50.455,54.393 
		52.219,52.666 60.088,60.678 59.056,61.688 60.578,63.238 64.44,59.445 62.917,57.894 61.875,58.92 54.008,50.91 55.769,49.179 
		57.303,50.739 58.951,49.123 	"/>
	<polygon fill="#00628B" points="57.105,66.826 55.45,65.419 54.581,66.443 46.023,59.168 46.896,58.143 45.229,56.724 
		41.888,60.652 43.557,62.071 44.415,61.062 52.969,68.336 52.112,69.347 53.765,70.754 57.105,66.826 	"/>
	<polygon fill="#00628B" points="52.194,72.717 47.865,69.684 46.571,71.527 49.126,73.314 46.745,76.709 37.55,70.269 
		38.374,69.086 36.583,67.83 33.568,72.133 35.363,73.389 36.121,72.305 45.317,78.75 44.557,79.833 46.337,81.079 52.194,72.717 	
		"/>
	<path fill="#00628B" d="M40.762,83.635c0.75,0.398,1.014,0.83,0.699,1.423l-1.393,2.615c-0.312,0.596-0.828,0.634-1.577,0.234
		l-7.671-4.075c-0.762-0.407-0.98-0.838-0.666-1.43l1.392-2.619c0.316-0.591,0.785-0.632,1.549-0.224L40.762,83.635L40.762,83.635z
		 M42.497,81.717l-8.762-4.659c-1.553-0.826-3.013-0.395-3.781,1.054l-2.08,3.904c-0.766,1.449-0.307,2.901,1.243,3.728l8.763,4.659
		c1.535,0.815,2.994,0.383,3.764-1.064l2.079-3.903C44.491,83.986,44.034,82.533,42.497,81.717L42.497,81.717z"/>
	<path fill="#00628B" d="M28.74,92.551c0.789,0.307,1.076,0.713,0.833,1.341l-1.156,2.981l-4.17-1.619l1.158-2.981
		c0.24-0.625,0.707-0.742,1.518-0.429L28.74,92.551L28.74,92.551z M29.752,90.272l-2.499-0.97c-1.637-0.633-3.03-0.05-3.623,1.475
		l-2.808,7.238l2.046,0.793l0.477-1.235l10.467,4.06l-0.477,1.238l2.024,0.786l1.907-4.917l-2.023-0.788l-0.527,1.365l-4.367-1.694
		l1.287-3.314C32.314,92.56,31.626,91.001,29.752,90.272L29.752,90.272z"/>
	<polygon fill="#00628B" points="256.258,128.588 254.069,128.71 254.238,131.59 260.794,134.257 254.59,137.684 254.771,140.798 
		256.959,140.672 256.882,139.35 263.159,135.466 267.889,135.193 267.969,136.612 270.141,136.488 269.836,131.201 
		267.664,131.328 267.744,132.708 262.895,132.987 256.338,129.907 256.258,128.588 	"/>
	<path fill="#00628B" d="M270.301,143.493l-8.938-0.376l-0.208,4.953l2.188,0.092l0.107-2.564l4.577,0.192l-0.156,3.844
		c-0.032,0.673-0.478,0.933-1.323,0.897l-8.681-0.361c-0.865-0.039-1.247-0.328-1.218-1.002l0.16-3.854l2.557,0.112l0.096-2.229
		l-4.748-0.201l-0.285,6.81c-0.072,1.639,0.971,2.748,2.726,2.822l9.919,0.414c1.735,0.068,2.866-0.949,2.938-2.584L270.301,143.493
		L270.301,143.493z"/>
	<path fill="#00628B" d="M265.645,159.154c0.841,0.143,1.225,0.459,1.122,1.123l-0.47,2.926c-0.108,0.662-0.581,0.867-1.414,0.734
		l-8.578-1.379c-0.857-0.131-1.202-0.469-1.098-1.129l0.473-2.93c0.104-0.664,0.538-0.852,1.391-0.715L265.645,159.154
		L265.645,159.154z M266.669,156.783l-9.803-1.57c-1.735-0.281-2.978,0.602-3.233,2.219l-0.702,4.365
		c-0.265,1.629,0.642,2.846,2.381,3.125l9.799,1.57c1.716,0.275,2.954-0.604,3.218-2.221l0.698-4.369
		C269.283,158.277,268.386,157.057,266.669,156.783L266.669,156.783z"/>
	<polygon fill="#00628B" points="267.175,170.162 262.062,168.809 261.484,170.982 264.497,171.785 263.432,175.797 252.582,172.92 
		252.947,171.529 250.831,170.965 249.483,176.047 251.608,176.607 251.945,175.324 262.799,178.201 262.462,179.48 
		264.562,180.037 267.175,170.162 	"/>
	<path fill="#00628B" d="M258.99,185.301c0.793,0.303,1.114,0.691,0.878,1.322l-1.054,2.77c-0.236,0.629-0.746,0.729-1.539,0.434
		l-8.12-3.082c-0.806-0.307-1.078-0.707-0.838-1.336l1.051-2.77c0.236-0.625,0.701-0.73,1.507-0.42L258.99,185.301L258.99,185.301z
		 M260.474,183.176l-9.282-3.518c-1.639-0.627-3.037-0.014-3.615,1.518l-1.566,4.137c-0.582,1.539,0.052,2.918,1.699,3.543
		l9.277,3.518c1.628,0.619,3.022,0.006,3.6-1.527l1.571-4.135C262.733,185.176,262.101,183.797,260.474,183.176L260.474,183.176z"/>
	<path fill="#00628B" d="M246.021,190.824l-1.924-1.055l-1.747,3.182l8.06,4.428c0.589,0.326,1.31,0.654,2.168,0.963l-12.978-0.385
		l-1.893,3.443l1.924,1.053l0.635-1.158l9.843,5.406l-0.637,1.162l1.903,1.043l1.747-3.182l-8.04-4.422
		c-0.592-0.324-1.326-0.664-2.212-0.984l13.122,0.195l1.138-2.074l-11.751-6.453L246.021,190.824L246.021,190.824z"/>
	<polygon fill="#00628B" points="249.027,212.758 247.284,211.459 246.494,212.521 237.468,205.807 238.254,204.746 236.49,203.443 
		234.223,206.502 239.701,210.572 236.932,214.297 231.453,210.232 229.181,213.287 230.939,214.594 231.729,213.535 
		240.755,220.24 239.969,221.309 241.717,222.6 243.985,219.541 238.519,215.475 241.284,211.748 246.759,215.812 249.027,212.758 	
		"/>
	<path fill="#00628B" d="M238.888,225.941l-3.647-3.318l-1.476,1.621l2.044,1.857l-2.588,2.854
		c-0.453,0.492-0.962,0.404-1.588-0.164l-6.429-5.836c-0.642-0.586-0.749-1.059-0.296-1.553l2.589-2.848l1.996,1.814l1.475-1.617
		l-3.619-3.297l-4.557,5.02c-1.103,1.209-1.015,2.729,0.288,3.906l7.342,6.678c1.291,1.17,2.811,1.113,3.912-0.1L238.888,225.941
		L238.888,225.941z"/>
	<polygon fill="#00628B" points="229.341,235.891 226.118,232.125 224.443,233.561 226.246,235.68 222.6,238.799 219.457,235.123 
		223.24,231.887 221.878,230.297 218.099,233.531 215.306,230.266 218.832,227.25 220.548,229.254 222.198,227.842 219.056,224.168 
		210.985,231.076 212.403,232.742 213.413,231.881 220.708,240.416 219.706,241.279 221.116,242.926 229.341,235.891 	"/>
	<polygon fill="#00628B" points="211.874,235.916 209.441,232.273 199.41,238.979 201.843,242.621 203.767,241.334 202.548,239.516 
		204.604,238.148 210.841,247.482 209.638,248.281 210.849,250.092 215.346,247.082 214.143,245.275 212.925,246.084 
		206.688,236.75 208.74,235.379 209.959,237.195 211.874,235.916 	"/>
	<polygon fill="#00628B" points="193.687,247.516 191.731,243.094 182.32,247.256 183.21,249.262 184.421,248.727 188.957,258.992 
		187.747,259.531 188.629,261.518 193.486,259.371 192.604,257.383 191.234,257.99 189.317,253.656 194.031,251.566 193.15,249.562 
		188.429,251.646 186.689,247.719 190.473,246.053 191.538,248.469 193.687,247.516 	"/>
	<polygon fill="#00628B" points="162.189,255.162 161.913,252.988 159.052,253.357 156.847,260.088 152.999,254.133 
		149.905,254.525 150.178,256.697 151.492,256.533 155.801,262.523 156.402,267.223 154.99,267.404 155.269,269.559 
		160.518,268.891 160.241,266.732 158.871,266.91 158.257,262.092 160.874,255.33 162.189,255.162 	"/>
	<polygon fill="#00628B" points="148.534,258.949 148.499,254.568 136.429,254.664 136.469,259.045 138.777,259.025 
		138.761,256.846 141.229,256.822 141.319,268.049 139.881,268.061 139.898,270.232 145.308,270.191 145.29,268.016 
		143.829,268.027 143.739,256.801 146.206,256.777 146.224,258.965 148.534,258.949 	"/>
	<polygon fill="#00628B" points="133.249,270 133.437,267.836 132.098,267.721 133.078,256.533 134.416,256.654 134.607,254.463 
		129.471,254.016 129.282,256.195 130.602,256.312 129.619,267.498 128.301,267.387 128.112,269.547 133.249,270 	"/>
	<path fill="#00628B" d="M124.429,266.377l0.623-3.34c0.321-1.729-0.513-2.967-2.122-3.27l-3.164-0.59
		c-0.661-0.123-0.852-0.6-0.699-1.434l0.337-1.781c0.158-0.854,0.503-1.189,1.162-1.068l3.166,0.592l-0.366,1.955l2.406,0.455
		l0.77-4.113l-6.29-1.178c-1.611-0.305-2.861,0.568-3.18,2.297l-0.585,3.121c-0.325,1.727,0.526,2.99,2.136,3.295l3.146,0.586
		c0.661,0.119,0.856,0.58,0.698,1.434l-0.367,1.961c-0.158,0.836-0.51,1.215-1.169,1.09l-3.452-0.65l0.441-2.363l-2.505-0.469
		l-0.844,4.502l6.7,1.252C122.88,268.963,124.108,268.09,124.429,266.377L124.429,266.377z"/>
	<path fill="#00628B" d="M111.936,266.945l0.612-2.084l-1.284-0.379l0.85-2.885c0.483-1.621,0.202-2.553-1.231-3.414
		c1.418,0.221,2.249-0.236,2.616-1.463l0.709-2.4c0.499-1.684-0.2-3.021-1.773-3.486l-7.442-2.205l-0.619,2.105l1.269,0.371
		l-3.186,10.773l-1.267-0.381l-0.615,2.086l3.652,1.082l1.946-6.574l3.122,0.926c0.666,0.197,0.769,0.678,0.525,1.494l-1.576,5.34
		L111.936,266.945L111.936,266.945z M111.092,256.07c-0.241,0.811-0.624,1.127-1.268,0.939l-3.067-0.906l1.268-4.287l3.069,0.9
		c0.645,0.191,0.797,0.65,0.553,1.482L111.092,256.07L111.092,256.07z"/>
	<polygon fill="#00628B" points="96.881,262.332 98.837,257.779 96.806,256.904 95.705,259.463 91.299,257.57 93.207,253.121 
		97.781,255.086 98.604,253.162 94.031,251.197 95.729,247.246 99.994,249.082 98.952,251.51 100.945,252.369 102.855,247.932 
		93.092,243.732 92.227,245.748 93.443,246.268 89.01,256.584 87.791,256.062 86.934,258.064 96.881,262.332 	"/>
	<polygon fill="#00628B" points="90.263,244.91 91.353,243.002 88.455,241.346 79.58,250.668 83.086,238.281 80.202,236.635 
		79.117,238.537 80.265,239.195 76.72,252.602 79.343,254.102 89.114,244.254 90.263,244.91 	"/>
	<polygon fill="#00628B" points="69.59,248.152 70.858,246.385 69.767,245.604 76.307,236.479 77.4,237.262 78.676,235.471 
		74.483,232.475 73.207,234.256 74.285,235.031 67.744,244.156 66.666,243.387 65.401,245.146 69.59,248.152 	"/>
	<path fill="#00628B" d="M71.342,232.947l1.44-1.656l-2.747-2.381l-6.03,6.941c-0.438,0.51-0.915,1.143-1.4,1.918l3.124-12.607
		l-2.97-2.576l-1.435,1.654l1,0.867l-7.364,8.48l-1-0.869l-1.423,1.643l2.739,2.381l6.02-6.93c0.442-0.5,0.928-1.154,1.432-1.947
		l-2.963,12.777l1.791,1.555l8.788-10.119L71.342,232.947L71.342,232.947z"/>
	<path fill="#00628B" d="M59.748,222.742l1.644-1.447l-2.414-2.74l-9.11,8.023c-0.635,0.561-1.145,0.641-1.588,0.137l-2.062-2.346
		c-0.444-0.5-0.29-0.98,0.352-1.547l9.105-8.016l-2.532-2.877l-1.647,1.445l0.889,1.01l-7.566,6.666
		c-1.526,1.344-1.653,3.143-0.4,4.561l2.286,2.598c1.265,1.438,3.062,1.539,4.592,0.193l7.566-6.662L59.748,222.742L59.748,222.742z
		"/>
	<path fill="#00628B" d="M45.751,205.473l1.898-1.1l-1.824-3.145l-7.955,4.617c-0.579,0.336-1.235,0.785-1.948,1.361l7.034-10.918
		l-1.975-3.395l-1.893,1.1l0.663,1.141l-9.707,5.643l-0.668-1.141l-1.875,1.086l1.824,3.146l7.935-4.609
		c0.581-0.34,1.251-0.797,1.981-1.383l-6.934,11.133l1.192,2.049l11.587-6.73L45.751,205.473L45.751,205.473z"/>
	<path fill="#00628B" d="M30.502,190.791l-1.281-2.998l6.911-1.143L30.502,190.791L30.502,190.791z M26.066,198.227l1.999-0.855
		l-0.479-1.127l10.956-8.516l-1.411-3.305l-13.738,1.99l-0.465-1.086l-1.998,0.85l1.194,2.797l4.979-0.857l1.682,3.945l-4.052,3.029
		L26.066,198.227L26.066,198.227z"/>
	<path fill="#00628B" d="M33.147,180.287l2.103-0.611l-1.02-3.49l-8.829,2.578c-0.643,0.188-1.389,0.463-2.219,0.85l9.451-8.91
		l-1.103-3.766l-2.107,0.607l0.374,1.275l-10.78,3.143l-0.369-1.268l-2.089,0.609l1.021,3.482l8.809-2.568
		c0.644-0.189,1.407-0.475,2.259-0.867l-9.402,9.143l0.663,2.277l12.863-3.752L33.147,180.287L33.147,180.287z"/>
	<polygon fill="#00628B" points="15.657,167.197 20.454,166.436 20.073,164.041 17.422,164.463 16.628,159.449 29.041,164.799 
		31.013,164.486 29.422,154.42 24.666,155.172 25.044,157.592 27.638,157.186 28.391,161.941 16.009,156.543 14.021,156.855 
		15.657,167.197 	"/>
	<path fill="#00628B" d="M16.881,150.379c-0.85,0.047-1.295-0.192-1.326-0.866l-0.146-2.957c-0.032-0.666,0.389-0.967,1.238-1.006
		l8.669-0.421c0.866-0.049,1.274,0.208,1.309,0.877l0.146,2.959c0.035,0.673-0.348,0.949-1.216,0.988L16.881,150.379L16.881,150.379
		z M16.372,152.92l9.915-0.49c1.756-0.086,2.787-1.201,2.707-2.844l-0.218-4.418c-0.08-1.639-1.217-2.646-2.971-2.564l-9.915,0.489
		c-1.735,0.089-2.771,1.202-2.688,2.842l0.217,4.411C13.498,151.988,14.638,153.004,16.372,152.92L16.372,152.92z"/>
	<path fill="#00628B" d="M23.371,137.271c-0.846-0.064-1.236-0.369-1.187-1.041l0.247-3.192l4.461,0.347l-0.245,3.188
		c-0.054,0.669-0.469,0.918-1.332,0.849L23.371,137.271L23.371,137.271z M23.062,139.744l2.673,0.208
		c1.751,0.132,2.913-0.827,3.04-2.458l0.597-7.739l-2.187-0.17l-0.1,1.319l-11.196-0.86l0.099-1.321l-2.165-0.17l-0.402,5.26
		l2.164,0.168l0.112-1.459l4.669,0.359l-0.274,3.545C19.946,138.299,21.053,139.59,23.062,139.744L23.062,139.744z"/>
	<path fill="#00628B" d="M181.84,260.225c0.265,0.809,0.16,1.297-0.478,1.516l-2.816,0.926c-0.635,0.211-1.035-0.115-1.3-0.922
		l-2.725-8.242c-0.277-0.824-0.137-1.285,0.501-1.498l2.813-0.93c0.637-0.205,1.006,0.084,1.278,0.906L181.84,260.225
		L181.84,260.225z M184.421,260.039l-3.118-9.426c-0.554-1.668-1.908-2.365-3.463-1.848l-4.2,1.391
		c-1.556,0.512-2.229,1.875-1.676,3.551l3.119,9.418c0.544,1.648,1.896,2.35,3.454,1.834l4.2-1.389
		C184.292,263.053,184.966,261.682,184.421,260.039L184.421,260.039z"/>
	<path fill-rule="evenodd" clip-rule="evenodd" fill="#00628B" d="M225.975,155.004c0.692-4.438,1.065-8.896,1.065-13.271
		c0-2.17-0.097-4.367-0.28-6.675l14.701-4.776l1.13-0.367l-0.152-1.175c-1.331-10.476-4.296-20.642-8.806-30.217l-0.541-1.145
		l-1.194,0.393l-14.452,4.697c-3.271-6.301-7.298-12.142-11.983-17.408l9.026-12.429l0.704-0.978l-0.842-0.861
		c-7.39-7.565-15.871-13.902-25.193-18.835l-1.094-0.579l-0.732,1.002l-8.966,12.336c-6.514-3.1-13.423-5.356-20.564-6.717V42.724
		v-1.238l-1.223-0.181c-4.894-0.715-9.877-1.08-14.817-1.08c-5.538,0-11.138,0.459-16.641,1.362l-1.195,0.197v1.218v15.344
		c-6.938,1.477-13.685,3.839-20.094,7.025l-8.936-12.298l-0.741-1.019l-1.105,0.605c-9.26,5.074-17.644,11.538-24.926,19.211
		l-0.815,0.863l0.695,0.961l9.086,12.501c-4.421,5.136-8.204,10.768-11.271,16.769l-14.426-4.689l-1.209-0.388l-0.53,1.15
		c-4.453,9.589-7.358,19.776-8.638,30.27l-0.142,1.173l1.12,0.362l14.731,4.787c-0.159,2.175-0.24,4.188-0.24,6.101
		c0,4.197,0.336,8.461,0.978,12.719l-14.451,4.693l-1.199,0.385l0.233,1.246c1.974,10.385,5.547,20.354,10.621,29.621l0.569,1.043
		l1.126-0.363l14.707-4.781c3.08,5.014,6.694,9.723,10.771,14.033l-8.963,12.338l-0.729,1.006l0.889,0.861
		c7.594,7.371,16.232,13.496,25.676,18.182l1.083,0.535l0.712-0.977l9.033-12.439c5.284,2.316,10.782,4.09,16.383,5.285v15.338
		v1.219l1.195,0.201c5.492,0.9,11.09,1.361,16.641,1.361c4.934,0,9.92-0.365,14.812-1.078l1.228-0.186v-1.229v-15.273
		c5.774-1.104,11.418-2.797,16.809-5.043l9.074,12.49l0.705,0.965l1.074-0.518c9.515-4.545,18.247-10.527,25.946-17.795l0.914-0.863
		l-0.737-1.018l-8.93-12.289c4.365-4.447,8.229-9.357,11.502-14.615l14.725,4.781l1.123,0.369l0.569-1.033
		c5.13-9.246,8.765-19.199,10.793-29.576l0.244-1.242l-1.202-0.393L225.975,155.004L225.975,155.004z M228.627,188.479
		l-14.637-4.754l-1.081-0.355l-0.586,0.975c-3.495,5.773-7.72,11.125-12.536,15.91l-0.874,0.861l0.722,0.99l8.881,12.227
		c-6.966,6.41-14.765,11.76-23.229,15.924l-9.029-12.42l-0.677-0.938l-1.051,0.461c-5.859,2.547-12.056,4.4-18.412,5.52
		l-1.179,0.203v1.203v15.203c-4.368,0.576-8.791,0.889-13.178,0.889c-4.993,0-10.025-0.396-14.975-1.158v-15.258v-1.174
		l-1.155-0.229c-6.159-1.223-12.205-3.178-17.975-5.803l-1.063-0.48l-0.688,0.945l-8.988,12.371
		c-8.396-4.293-16.111-9.758-22.982-16.264l8.922-12.273l0.709-0.977l-0.843-0.867c-4.531-4.656-8.502-9.826-11.794-15.357
		l-0.585-0.979l-1.09,0.35l-14.626,4.754c-4.436-8.338-7.63-17.242-9.512-26.514l14.376-4.666l1.171-0.375l-0.198-1.221
		c-0.739-4.496-1.121-9.028-1.121-13.471c0-2.162,0.106-4.451,0.321-6.997l0.094-1.126l-1.082-0.354l-14.655-4.762
		c1.259-9.368,3.851-18.468,7.716-27.091l14.353,4.662l1.18,0.383l0.545-1.111c3.224-6.533,7.312-12.631,12.166-18.12l0.758-0.859
		l-0.674-0.928l-9.029-12.433c6.586-6.781,14.079-12.558,22.299-17.198l8.89,12.232l0.722,0.998l1.096-0.567
		c6.848-3.531,14.112-6.074,21.59-7.555l1.155-0.229v-1.176V44.239c4.962-0.753,9.991-1.155,14.975-1.155
		c4.394,0,8.817,0.311,13.178,0.894v15.2v1.2l1.179,0.21c7.698,1.353,15.125,3.78,22.075,7.212l1.086,0.535l0.709-0.978
		l8.918-12.274c8.276,4.519,15.852,10.182,22.544,16.861l-8.978,12.359l-0.689,0.946l0.79,0.863
		c5.126,5.595,9.455,11.895,12.89,18.729l0.549,1.1l1.17-0.38l14.377-4.674c3.919,8.613,6.568,17.697,7.87,27.043l-14.629,4.752
		l-1.085,0.353l0.104,1.142c0.24,2.64,0.36,5.112,0.36,7.553c0,4.615-0.408,9.332-1.209,14.018l-0.209,1.217l1.175,0.385
		l14.359,4.666C236.358,171.268,233.107,180.154,228.627,188.479L228.627,188.479z"/>
	<path fill-rule="evenodd" clip-rule="evenodd" fill="#00628B" d="M161.56,87.735c-2.34,0.527-4.2-0.359-4.926-1.303
		c-0.725-0.939,0.217-3.839,1.015-3.693c0.802,0.144,0.072,0.653-0.148,1.955c-0.212,1.303,0.581,1.666,0.581,1.666
		c7.463-5.647,1.668-7.391,1.668-7.391c2.027-2.386,0.873-5.938,0.873-5.938c-4.641,1.521-4.713,5.216-4.713,5.216
		c-1.086-1.738-4.057-0.652-4.778,1.014c-0.729,1.664-0.576,6.301-0.576,6.301c2.966,0.653,2.312-3.258,3.398-3.402
		c1.086-0.145,1.739,3.621-3.33,4.562c-5.072,0.94-6.378-1.956-6.952-3.55c-0.581-1.591,1.303-2.972,1.735-0.796
		c0.434,2.174,2.175,2.968,2.175,2.968c-0.652-1.589,1.955-4.054,1.739-6.808c-0.216-2.751-4.926-1.301-4.926-1.301
		c0.597-1.36,0.368-2.766-0.149-3.992c-0.306-0.726-0.704-1.387-1.096-1.942v-2.649h2.129v-2.789h-2.129v-1.631h-2.785v1.631h-2.128
		v2.789h2.128v2.751c-0.366,0.536-0.739,1.157-1.031,1.84c-0.515,1.226-0.735,2.631-0.143,3.992c0,0-4.705-1.451-4.926,1.301
		c-0.215,2.754,2.391,5.218,1.741,6.808c0,0,1.737-0.794,2.174-2.968c0.432-2.176,2.313-0.795,1.736,0.796
		c-0.583,1.595-1.884,4.491-6.954,3.55c-5.068-0.941-4.412-4.707-3.331-4.562c1.087,0.144,0.436,4.056,3.407,3.402
		c0,0,0.14-4.637-0.585-6.301c-0.722-1.666-3.693-2.751-4.78-1.014c0,0-0.067-3.696-4.705-5.216c0,0-1.16,3.551,0.868,5.938
		c0,0-5.793,1.744,1.67,7.391c0,0,0.793-0.363,0.575-1.666c-0.219-1.302-0.938-1.811-0.141-1.955
		c0.793-0.146,1.732,2.753,1.012,3.693c-0.724,0.944-2.587,1.83-4.927,1.303c-5.158-1.157-1.323-9.343-8.112-10.139
		c0,0,3.611,8.744,7.945,13.98h39.87c4.332-5.237,7.943-13.98,7.943-13.98C162.883,78.393,166.714,86.579,161.56,87.735
		L161.56,87.735z"/>
	<path fill-rule="evenodd" clip-rule="evenodd" fill="#00628B" d="M156.426,114.632c-0.797-0.094-2.108-0.471-2.473-1.046
		c0.289-0.619,0.696-1.828,0.696-3.23c0-0.772-0.127-1.594-0.501-2.374c-0.296-0.837-0.877-1.442-1.682-1.773
		c-0.59-0.332-1.239-0.503-1.921-0.503c-2.203,0-4.003,1.806-4.003,4.004c0,1.479,0.837,2.804,2.127,3.501
		c-0.007,0.024-0.007,0.024-0.011,0.04c-0.329,0.026-1.447,0.118-1.447,0.118l-0.072,0.225c-0.008,0.032-0.053,0.187-0.053,0.395
		c0,0.2,0.041,0.433,0.181,0.669c0.076,0.127,0.229,0.252,0.429,0.361c-0.072,0.094-0.075,0.127-0.115,0.196
		c-0.289,0.002-1.6,0.074-1.6,0.074l-0.021,0.303c0,0.03,0,0.064,0,0.11c0,0.323,0.094,0.76,0.408,1.057
		c-0.046,0.068-0.072,0.089-0.112,0.134c-0.249,0-1.15,0-1.158,0c-0.004-0.006-0.551-0.108-0.806-0.146
		c-0.152-0.183-1.124-1.359-1.23-1.485c-0.269-1.018-0.371-1.807-0.371-2.367c0-1.2,0.413-1.517,0.413-1.529
		c1.028-0.395,1.267-0.775,1.305-1.009c0.152-0.307,0.254-0.625,0.254-0.925c0-0.242-0.063-0.496-0.174-0.734
		c-0.094-0.217-0.228-0.403-0.393-0.576v-0.01c-0.605-0.629-1.493-1.01-2.104-1.012c-0.253,0-0.579,0.046-0.655,0.325
		c-0.055,0.152-0.197,0.254-0.369,0.235c-0.158-0.01-0.299-0.135-0.316-0.305c-0.009-0.033-0.082-0.572-0.546-1.126
		c-0.069-0.05-0.122-0.12-0.2-0.159c-0.8-0.422-1.873-0.329-2.681,0.223c-0.858,0.591-1.263,1.601-1.13,2.778l0.085,0.705
		l0.514-0.508c0.659-0.667,2.236,0.521,2.878,1.09c-0.031,0.3-0.203,3.394-0.205,3.623c-1.008,1.021-2.092,2.376-2.4,2.768
		c-0.196,0.028-0.857,0.151-0.857,0.151s-0.854-0.005-1.103-0.005c-0.054-0.045-0.062-0.066-0.114-0.134
		c0.312-0.297,0.409-0.733,0.409-1.057c0-0.046,0-0.08-0.003-0.11l-0.025-0.303c0,0-1.303-0.072-1.585-0.074
		c-0.042-0.068-0.068-0.102-0.122-0.196c0.202-0.109,0.354-0.234,0.432-0.361c0.136-0.236,0.176-0.469,0.176-0.669
		c0-0.208-0.043-0.362-0.055-0.395l-0.062-0.225c0,0-1.122-0.092-1.457-0.118c-0.005-0.016-0.005-0.016-0.016-0.04
		c1.299-0.697,2.136-2.021,2.136-3.501c0-2.198-1.791-4.004-4.014-4.004c-0.669,0-1.328,0.171-1.941,0.521
		c-0.785,0.312-1.352,0.918-1.686,1.8c-0.347,0.751-0.479,1.562-0.479,2.326c0,1.393,0.421,2.614,0.711,3.233
		c-0.366,0.575-1.685,0.952-2.479,1.046l-0.389,0.05l0.094,0.393c0.365,1.499,1.6,2.045,3.553,1.584
		c0.312-0.082,0.613-0.254,0.895-0.491c0.158,0.223,0.276,0.395,0.367,0.501c-0.026,0.237-0.325,3.312-0.325,3.312
		c-0.106,0.727-1.796,1.165-2.603,1.273l-0.392,0.05l0.09,0.375c0.377,1.515,1.622,2.061,3.555,1.602
		c1.091-0.265,1.896-1.387,2.428-3.254c0.046,0.064,0.073,0.09,0.104,0.125c-0.059,0.686-0.355,4.491-0.514,5.578
		c-0.097,0.724-1.8,1.178-2.602,1.282l-0.391,0.044l0.095,0.385c0.381,1.496,1.595,2.056,3.554,1.585
		c2.189-0.515,2.791-4.329,2.946-5.841c0,0.356,0,4.59,0,4.59s0.379,0.054,0.447,0.062c0,0.038-0.006,0.064-0.006,0.108
		c0,0.079,0.006,0.165,0.015,0.242c-0.59,1.271-1.281,2.832-1.604,3.528c-2.103-0.329-3.95,0.77-4.032,0.826l0.79,1.307
		c0.012-0.009,0.646-0.379,1.517-0.569c-0.505,0.491-0.956,1.064-1.122,1.663l1.473,0.407c0.183-0.646,1.397-1.625,2.215-2.09
		c0.065-0.056,0.136-0.102,0.186-0.17c0.407-0.108,1.64-0.152,2.804-0.11l0.07-1.538c-0.891-0.032-1.567-0.018-2.088,0.006
		l1.269-2.808c0.016-0.019,0.052-0.033,0.069-0.04c0.165,0.096,0.523,0.307,0.523,0.307s0.851-0.307,1.164-0.431
		c0.101,0.208,0.252,0.683,0.252,1.804c0,0.52-0.037,1.17-0.117,1.99c-0.103,0.946-0.465,1.654-1.072,2.115
		c-1.246,0.875-3.115,0.473-3.136,0.466l-0.678-0.13l0.278,0.619c0.556,1.295,1.345,2.062,2.293,2.25
		c0.899,0.176,1.733-0.174,2.314-0.541c-0.017,0.188-0.041,0.371-0.041,0.545c0,1.839,1.213,3.23,1.279,3.3l0.253,0.291l0.252-0.287
		c0.076-0.07,1.316-1.475,1.316-3.324c0-0.162-0.021-0.348-0.052-0.525c0.587,0.367,1.429,0.717,2.322,0.541
		c0.96-0.188,1.726-0.956,2.299-2.25l0.267-0.619l-0.668,0.13c-0.011,0.007-1.891,0.409-3.124-0.466
		c-0.619-0.461-0.997-1.168-1.085-2.115c-0.083-0.819-0.122-1.47-0.122-1.99c0-1.121,0.158-1.595,0.247-1.804
		c0.325,0.125,1.177,0.431,1.177,0.431s0.2-0.121,0.367-0.223l1.338,2.757c-0.519-0.018-1.183-0.032-2.036,0l0.061,1.538
		c1.221-0.049,2.522,0.008,2.859,0.122c0.04,0.057,0.08,0.115,0.131,0.159c0.812,0.465,2.04,1.445,2.216,2.09l1.487-0.407
		c-0.169-0.599-0.625-1.172-1.13-1.663c0.856,0.19,1.49,0.561,1.507,0.569l0.793-1.307c-0.089-0.064-1.944-1.162-4.054-0.819
		c-0.305-0.629-0.968-1.99-1.552-3.197c0.072-0.178,0.095-0.375,0.095-0.579c0-0.043,0-0.07,0-0.108
		c0.053-0.008,0.436-0.062,0.436-0.062s0-4.234,0-4.59c0.168,1.512,0.767,5.326,2.96,5.841c1.931,0.471,3.157-0.089,3.547-1.585
		l0.096-0.385l-0.4-0.044c-0.802-0.104-2.49-0.559-2.602-1.282c-0.148-1.087-0.441-4.892-0.509-5.578
		c0.028-0.035,0.067-0.062,0.1-0.125c0.545,1.868,1.347,2.99,2.421,3.254c1.956,0.459,3.182-0.087,3.567-1.602l0.096-0.375
		l-0.393-0.05c-0.81-0.108-2.496-0.546-2.605-1.273c0,0-0.26-2.703-0.32-3.312c0.071-0.106,0.209-0.278,0.365-0.501
		c0.284,0.237,0.572,0.409,0.893,0.491c1.953,0.461,3.175-0.085,3.552-1.584l0.101-0.393L156.426,114.632L156.426,114.632z
		 M145.943,133.011L145.943,133.011c0,0,0,0,0.002,0.006L145.943,133.011L145.943,133.011z M144.861,107.931l0.435,0.25l0.775-1.331
		l-0.92-0.536l0.543-0.916l-1.318-0.766l-0.538,0.908l-0.917-0.542l-0.78,1.324l0.176,0.109
		C143.226,106.557,144.243,107.108,144.861,107.931L144.861,107.931z"/>
	<path fill-rule="evenodd" clip-rule="evenodd" fill="#00628B" d="M116.66,133.78c0.615,2.021,1.327,4.431,1.389,4.629
		c0.154,0.165,1.979,2.28,2.981,3.445l0.826-0.176l0.288-3.607C121.672,137.704,118.607,135.308,116.66,133.78L116.66,133.78z
		 M114.482,137.397c0-0.15-0.118-0.262-0.265-0.262c-0.132,0-0.247,0.112-0.247,0.262c0,0.126,0.115,0.239,0.247,0.239
		C114.364,137.636,114.482,137.523,114.482,137.397L114.482,137.397z M105.669,129.095l-6.131-4.942l-2.765-0.421l1.168,2.658
		l5.988,5.001L105.669,129.095L105.669,129.095z M109.256,138.337c0,0,2.667-1.511,3.006-1.703c0.146-0.253,0.557-0.984,0.68-1.208
		c0-0.174,0.009-0.445,0.025-0.832c-0.585-0.153-1.278-0.318-1.817-0.464c-0.438,0.708-1.998,3.267-1.998,3.267l-4.06,0.852
		l-0.312-1.508c0,0,0.899-0.183,1.795-0.369l-0.028-0.022l1.423-1.646l-3.985-3.28l-3.01,3.971l3.395,6.377
		C105.896,140.689,109.2,138.36,109.256,138.337L109.256,138.337z M114.768,132.822l1.147-1.576l5.542,4.336l-2.288-5.878
		l-4.259-1.05c3.044-1.363,5.181-4.407,5.181-7.962c0-4.815-3.907-8.717-8.722-8.717c-4.805,0-8.719,3.902-8.719,8.717
		c0,3.555,2.137,6.599,5.183,7.962l-1.579-0.227l-0.519,0.693l4.202,3.307l1.336-1.553l1.165,0.986l-0.718,0.834l2.824,0.715
		l-0.085,2.222c0.871,0.121,1.557,0.859,1.557,1.766c0,0.968-0.804,1.784-1.799,1.784c-0.682,0-1.276-0.411-1.581-0.995
		c-0.896,0.501-2.569,1.443-2.569,1.443c-0.01,0-4.795,3.374-5.495,3.872l-0.19,2.629l-1.09,13.715h16.404l0.368-12.333l0.114-4.308
		l-3.5-4.04L114.768,132.822L114.768,132.822z M112.999,121.771c0.499-0.846,0.965-1.926,0.967-2.267
		c0-1.146-1.024-2.068-2.289-2.068c-1.269,0-2.301,0.922-2.301,2.068h-2.779c0-2.673,2.268-4.846,5.08-4.846
		c2.806,0,5.082,2.172,5.082,4.846c0,1.305-1.047,3.166-1.365,3.701L112.999,121.771L112.999,121.771z"/>
	<path fill-rule="evenodd" clip-rule="evenodd" fill="#00628B" d="M165.896,138.894c0.012,0.774,0.032,1.746,0.036,2.511
		c0.762-0.008,1.735-0.018,2.513-0.031c-0.016-0.76-0.024-1.734-0.024-2.5C167.636,138.882,166.675,138.882,165.896,138.894
		L165.896,138.894z M178.77,131.113l1.499,1.454l3.226-3.265L182,127.842l-1.615-0.094l0.869-0.918l-1.174-1.158l-3.988,4.329
		l-0.44-0.423c-0.602-0.232-3.054-1.213-3.303-1.315c-0.296,0.012-4.505,0.16-4.665,0.168c-0.136,0.044-2.757,0.762-3.507,0.966
		c-0.107,0.85-0.201,1.74-0.201,1.758l-1.622,10.911l0.016,2.646l0.161,15.337h16.504l-1.343-15.674l-0.285-3.947l-4.385-0.412
		l-3.077-1.142l0.048,4.034l-5.582,0.04l-0.049-5.567l4.068-0.048l-0.898-1.817l2.485-1.577l0.389-0.239
		c0,0,0.613,0.317,1.351,0.709l4.336-4.409l1.082,1.084l-3.979,4.048c0.462,0.237,0.862,0.437,1.03,0.524
		c0.385-0.21,1.03-0.561,1.03-0.561l0.732,1.35l-1.743,0.95c0,0-3.138-1.613-3.771-1.933c-0.297,0.194-0.554,0.358-0.962,0.611
		c0.256,0.509,0.477,0.944,0.608,1.227c0.474,0.172,3.091,1.139,3.247,1.189c0.115,0.018,2.413,0.24,4.232,0.408l2.324-0.19
		l-1.707-6.643l-1.03-0.997l1.476-1.525L178.77,131.113L178.77,131.113z M164.261,127.411c0.036,0.059,0.04,0.144,0.045,0.219
		c0.056,0.038,0.1,0.062,0.148,0.103l2.997-0.822l5.01-0.183l0.152-0.013l2.209,0.886c2.096-1.584,3.458-4.078,3.458-6.908
		c0-4.815-3.903-8.717-8.713-8.717c-4.825,0-8.721,3.902-8.721,8.717c0,0.233,0.027,0.449,0.04,0.676L164.261,127.411
		L164.261,127.411z M170.017,114.658c2.802,0,5.086,2.172,5.086,4.846c0,1.305-1.046,3.166-1.371,3.701l-2.396-1.435
		c0.509-0.846,0.974-1.926,0.974-2.267c0-1.146-1.026-2.068-2.292-2.068c-1.258,0-2.293,0.922-2.293,2.068h-2.793
		C164.931,116.831,167.211,114.658,170.017,114.658L170.017,114.658z M162.746,128.394l-0.128-0.8
		c-0.521-0.912-1.924-3.411-2.886-5.163v7.923l-1.907,4.87l0.2,4.474l3.089,0.318c0.479-3.216,1.331-9.081,1.331-9.057
		C162.445,130.959,162.65,129.248,162.746,128.394L162.746,128.394z"/>
	<path fill-rule="evenodd" clip-rule="evenodd" fill="#00628B" d="M139.894,184.695v1.07h-1.066v1.527h1.066v1.064h1.53v-1.064
		h1.062v-1.527h-1.062v-1.07H139.894L139.894,184.695z M148.189,187.395l-1.038,0.031l0.813-0.98l-1.188-0.98l-6.146,7.43
		l-6.146-7.43l-1.187,0.98l0.817,0.98l-1.181-0.031l-0.097,0.082l-1.514,1.234l2.93,3.539l1.617-1.314l0.184-1.166l3.583,4.32
		l-3.13,3.779l-5.526,0.541l0.631,6.568l6.595-0.617l-0.539-5.508l2.964-3.57l2.96,3.57l-0.535,5.508l6.591,0.617l0.634-6.568
		l-5.531-0.541l-3.126-3.775l3.583-4.33l0.188,1.172L147,192.25l2.941-3.539l-1.611-1.316H148.189L148.189,187.395z
		 M136.184,199.443c0.095,0.898,0.263,2.625,0.339,3.527c-0.899,0.088-2.621,0.262-3.525,0.342
		c-0.087-0.914-0.243-2.627-0.344-3.527C133.565,199.695,135.28,199.523,136.184,199.443L136.184,199.443z M145.08,199.443
		c0.896,0.08,2.616,0.252,3.534,0.338c-0.096,0.904-0.265,2.617-0.356,3.531c-0.895-0.08-2.627-0.254-3.529-0.342
		C144.815,202.068,144.991,200.342,145.08,199.443L145.08,199.443z"/>
	<path fill-rule="evenodd" clip-rule="evenodd" fill="#00628B" d="M192.645,94.364H89.417v67.882
		c0,25.99,23.954,47.943,52.314,47.943c13.191,0,26.438-5.1,36.373-14c10.276-9.209,15.943-21.273,15.943-33.943V94.364H192.645
		L192.645,94.364z M175.026,171.232c0,1.104,0,3.764,0,3.764h-7.835c0,0,0-2.66,0-3.764c-1.358,0-2.986,0-4.341,0
		c0,1.104,0,3.764,0,3.764h-7.855c0,0,0-2.66,0-3.764c-1.366,0-2.966,0-4.349,0c0,1.104,0,3.764,0,3.764h-7.84c0,0,0-2.66,0-3.764
		c-1.367,0-2.988,0-4.352,0c0,1.104,0,3.764,0,3.764h-7.85c0,0,0-2.66,0-3.764c-1.371,0-2.975,0-4.349,0c0,1.104,0,3.764,0,3.764
		h-7.839c0,0,0-2.66,0-3.764c-1.365,0-2.982,0-4.343,0c0,1.104,0,3.764,0,3.764h-7.855c0,0,0-2.66,0-3.764c-1.399,0-4.328,0-5.743,0
		v4.621h2.202v13.775c-6.53-7.66-10.472-17.186-10.472-27.383c0,0,0-62.409,0-65.088c2.677,0,96.373,0,99.051,0
		c0,2.679,0,65.088,0,65.088c0,10.879-4.48,21.287-12.672,29.623v-16.016h2.195v-4.621
		C179.37,171.232,176.453,171.232,175.026,171.232L175.026,171.232z M120.119,202.703c-0.002-0.094-0.005-0.184-0.005-0.273
		c0-3.67,0.887-7.129,2.43-10.168c3.45-6.805,10.244-11.438,18.095-11.438c8.208,0,15.278,5.102,18.561,12.467
		c1.23,2.779,1.948,5.869,1.948,9.139c0,0.373-0.009,0.736-0.028,1.102c-6.164,2.518-12.785,3.869-19.388,3.869
		C134.04,207.4,126.691,205.695,120.119,202.703L120.119,202.703z M133.393,172.203c0.916,0,1.361,0,2.274,0c0-1.115,0-3.76,0-3.76
		h9.924c0,0,0,2.645,0,3.76c0.912,0,1.366,0,2.278,0c0-1.115,0-3.76,0-3.76h3.277v-14.723l2.982-3.834v-6.281h-4.353v3.76h-3.182
		v-3.76h-4.356v3.76h-3.164v-3.76h-4.349v3.76h-3.183v-3.76h-4.351v6.281l2.979,3.834v14.723h3.221
		C133.393,168.443,133.393,171.088,133.393,172.203L133.393,172.203z M169.977,172.203c0.901,0,1.363,0,2.272,0
		c0-1.115,0-3.76,0-3.76h1.394h4.943v-6.197h-16.513v6.197h7.903C169.977,168.443,169.977,171.088,169.977,172.203L169.977,172.203z
		 M109.012,172.203c0.911,0,1.357,0,2.267,0c0-1.115,0-3.76,0-3.76h7.905v-6.197h-16.505v6.197h6.333
		C109.012,168.443,109.012,171.088,109.012,172.203L109.012,172.203z"/>
	<path fill-rule="evenodd" clip-rule="evenodd" fill="#00628B" d="M2.772,141.734C2.772,65.11,65.111,2.769,141.731,2.769
		S280.689,65.11,280.689,141.734c0,76.623-62.338,138.963-138.958,138.963S2.772,218.357,2.772,141.734L2.772,141.734z
		 M-0.002,141.734c0,78.15,63.584,141.729,141.733,141.729c78.15,0,141.73-63.578,141.73-141.729
		c0-78.153-63.58-141.737-141.73-141.737C63.582-0.002-0.002,63.581-0.002,141.734L-0.002,141.734z"/>
</g>
</svg>
