<svg xmlns="http://www.w3.org/2000/svg" version="1.1" fill="currentColor" width="1080" height="1080" viewBox="0 0 1080 1080">
<g transform="matrix(5.22 0 0 -5.22 541.95 539.58)"  >
    <path transform=" translate(96.55, 62.26)" stroke="currentColor" stroke-width="6" d="M 0 0 L -42.353 -38.771 C -44.491 -37.034 -46.965 -35.694 -49.661 -34.867000000000004 L -39.295 34.289 L -13.574000000000002 34.289 C -6.088 34.289 0 28.195 0 20.709 Z M 0 -145.242 C 0 -149.517 -2.021 -153.283 -5.113 -155.773 L -43.12 -73.09 C -37.774 -69.131 -34.302 -62.781000000000006 -34.302 -55.633 C -34.302 -51.145 -35.671 -46.97 -38.013 -43.504000000000005 L 0 -8.702 Z M -13.574 -158.816 L -73.047 -158.816 L -57.016 -77.324 C -56.686 -77.339 -56.354 -77.349 -56.019999999999996 -77.349 C -53.486999999999995 -77.349 -51.056999999999995 -76.91000000000001 -48.79599999999999 -76.10900000000001 L -10.90099999999999 -158.546 C -11.766999999999989 -158.72 -12.65999999999999 -158.816 -13.57399999999999 -158.816 M -106.22199999999998 -158.816 L -127.94699999999997 -136.492 C -125.15999999999997 -132.837 -123.48399999999998 -128.292 -123.48399999999998 -123.35499999999999 C -123.48399999999998 -119.57999999999998 -124.45799999999998 -116.02699999999999 -126.16099999999999 -112.93099999999998 L -71.172 -71.16899999999998 C -68.955 -73.33199999999998 -66.282 -75.02399999999999 -63.309999999999995 -76.08599999999998 L -79.59 -158.81599999999997 z M -179.529 -158.816 C -182.79 -158.816 -185.746 -157.615 -188.089 -155.691 L -160.687 -138.558 C -156.745 -142.57399999999998 -151.263 -145.07399999999998 -145.203 -145.07399999999998 C -140.479 -145.07399999999998 -136.115 -143.541 -132.544 -140.97199999999998 L -115.18 -158.81599999999997 z M -193.10399999999998 -145.242 L -193.10399999999998 -39.053 L -158.016 -105.863 C -163.402 -109.816 -166.921 -116.173 -166.921 -123.355 C -166.921 -126.958 -166.025 -130.35500000000002 -164.46599999999998 -133.353 L -192.01199999999997 -150.566 C -192.71099999999998 -148.931 -193.10399999999998 -147.13 -193.10399999999998 -145.242 M -193.10399999999998 20.709000000000003 C -193.10399999999998 21.382000000000005 -192.999 22.026000000000003 -192.90499999999997 22.675000000000004 L -149.56499999999997 7.3060000000000045 C -150.23399999999998 5.218000000000004 -150.60399999999996 2.9980000000000047 -150.60399999999996 0.6900000000000048 C -150.60399999999996 -9.144999999999996 -144.02699999999996 -17.460999999999995 -135.04499999999996 -20.123999999999995 L -145.62299999999996 -101.658 C -147.97199999999995 -101.703 -150.22699999999998 -102.132 -152.33799999999997 -102.869 L -193.10399999999996 -25.242000000000004 z M -179.529 34.289 L -95.22999999999999 34.289 L -114.88 17.263 C -118.66499999999999 20.466 -123.55 22.408 -128.886 22.408 C -136.248 22.408 -142.754 18.718 -146.685 13.098 L -190.501 28.635 C -188.03300000000002 32.044000000000004 -184.047 34.289 -179.529 34.289 M -128.886 -10.695 C -135.165 -10.695 -140.273 -5.587000000000001 -140.273 0.6899999999999995 C -140.273 6.968999999999999 -135.165 12.075999999999999 -128.886 12.075999999999999 C -122.60499999999999 12.075999999999999 -117.497 6.9689999999999985 -117.497 0.6899999999999995 C -117.497 -5.587000000000001 -122.605 -10.695 -128.886 -10.695 M -133.81199999999998 -123.35499999999999 C -133.81199999999998 -129.636 -138.922 -134.74599999999998 -145.20299999999997 -134.74599999999998 C -151.48099999999997 -134.74599999999998 -156.58799999999997 -129.63599999999997 -156.58799999999997 -123.35499999999998 C -156.58799999999997 -117.07999999999997 -151.48099999999997 -111.96999999999997 -145.20299999999997 -111.96999999999997 C -138.92199999999997 -111.96999999999997 -133.81199999999998 -117.07999999999997 -133.81199999999998 -123.35499999999998 M -139.25599999999997 -102.48799999999997 L -128.68699999999998 -21.017999999999972 C -122.98299999999999 -20.965999999999973 -117.80899999999998 -18.69699999999997 -113.95699999999998 -15.041999999999973 L -74.98699999999998 -45.071999999999974 C -76.73599999999998 -48.20099999999997 -77.73799999999999 -51.80099999999997 -77.73799999999999 -55.632999999999974 C -77.73799999999999 -59.41099999999997 -76.76699999999998 -62.964999999999975 -75.06299999999999 -66.06299999999997 L -130.05399999999997 -107.82599999999996 C -132.59899999999996 -105.34299999999996 -135.74799999999996 -103.48999999999997 -139.25599999999997 -102.48799999999997 M -44.62899999999998 -55.632999999999974 C -44.62899999999998 -61.912999999999975 -49.73799999999998 -67.02299999999997 -56.019999999999975 -67.02299999999997 C -62.299999999999976 -67.02299999999997 -67.40799999999997 -61.91299999999997 -67.40799999999997 -55.63299999999997 C -67.40799999999997 -49.35499999999997 -62.299999999999976 -44.24699999999997 -56.019999999999975 -44.24699999999997 C -49.73799999999997 -44.24699999999997 -44.62899999999998 -49.35499999999997 -44.62899999999998 -55.63299999999997 M -45.78699999999998 34.28900000000003 L -56.00999999999998 -33.91599999999997 C -56.01299999999998 -33.91599999999997 -56.016999999999975 -33.91499999999997 -56.019999999999975 -33.91499999999997 C -61.854999999999976 -33.91499999999997 -67.15599999999998 -36.23299999999997 -71.06299999999997 -39.99199999999997 L -109.99599999999998 -9.987999999999968 C -108.20499999999998 -6.8309999999999675 -107.16699999999999 -3.1919999999999673 -107.16699999999999 0.6900000000000333 C -107.16699999999999 5.020000000000033 -108.45499999999998 9.048000000000034 -110.64599999999999 12.438000000000033 L -85.42799999999998 34.28900000000003 z M -13.573999999999977 40.70700000000003 L -179.529 40.70700000000003 C -190.55 40.70700000000003 -199.521 31.732000000000028 -199.521 20.709000000000028 L -199.521 -145.24199999999996 C -199.521 -156.26699999999997 -190.54999999999998 -165.23399999999995 -179.529 -165.23399999999995 L -13.573999999999984 -165.23399999999995 C -2.5489999999999835 -165.23399999999995 6.420000000000016 -156.26699999999994 6.420000000000016 -145.24199999999996 L 6.420000000000016 20.709 C 6.420000000000016 31.732 -2.5489999999999835 40.707 -13.573999999999984 40.707" stroke-linecap="round" />
</g>
</svg>